Coordinates
version=1
nRows=10
nColumns=22
inDegrees=yes

Units are S.I. units (second, meters, Newtons, ...)
If the header above contains a line with 'inDegrees', this indicates whether rotational values are in degrees (yes) or radians (no).

endheader
time	pelvis_tilt	pelvis_list	pelvis_rotation	pelvis_tx	pelvis_ty	pelvis_tz	hip_flexion_r	hip_adduction_r	hip_rotation_r	knee_angle_r	ankle_angle_r	subtalar_angle_r	hip_flexion_l	hip_adduction_l	hip_rotation_l	knee_angle_l	ankle_angle_l	subtalar_angle_l	lumbar_extension	lumbar_bending	lumbar_rotation
      0.01000000	      0.60983920	     -0.23985469	    -13.68220207	     -1.18572083	      0.90635341	     -0.29946865	     -4.88353034	      0.75419929	     -4.90087439	     -2.50835584	     15.17590029	     -1.22705973	     -1.18152918	     -2.90796952	    -20.57391092	    -14.65862993	     16.06139864	      2.01404088	     -4.63439838	     -2.36730310	      3.82101344
      0.02000000	      0.63853803	     -0.22805013	    -13.62978455	     -1.18550714	      0.90637270	     -0.29971713	     -4.94316342	      0.72459502	     -4.90198692	     -2.47546730	     15.22834852	     -1.32336941	     -1.20340775	     -2.87461729	    -20.51702049	    -14.67006548	     16.06130168	      2.02473285	     -4.64762256	     -2.36778566	      3.83853861
      0.03000000	      0.63798308	     -0.22852078	    -13.59927745	     -1.18532087	      0.90635641	     -0.29986490	     -4.95218997	      0.71630244	     -4.89919034	     -2.48522920	     15.22590808	     -1.32488908	     -1.20870050	     -2.86998468	    -20.52034467	    -14.67157401	     16.05983237	      2.02511986	     -4.63534466	     -2.35743185	      3.84807042
      0.04000000	      0.63521901	     -0.22805996	    -13.55775744	     -1.18512502	      0.90633871	     -0.30003253	     -4.97184787	      0.71333595	     -4.93062311	     -2.47271622	     15.21309980	     -1.34686298	     -1.20206942	     -2.85939347	    -20.46973558	    -14.68695845	     16.06956931	      2.02819319	     -4.63193369	     -2.35610298	      3.88208277
      0.05000000	      0.62207584	     -0.21588621	    -13.49620408	     -1.18503523	      0.90631565	     -0.30020667	     -4.96607902	      0.70360293	     -4.92894135	     -2.46455617	     15.17732053	     -1.34065494	     -1.20054643	     -2.83578716	    -20.40223727	    -14.64677778	     16.06734747	      2.03382006	     -4.62115232	     -2.36545536	      3.81975249
      0.06000000	      0.61742413	     -0.20637524	    -13.47135620	     -1.18472638	      0.90627564	     -0.30038998	     -4.99860948	      0.67950544	     -4.99482964	     -2.43010467	     15.22359695	     -1.34986558	     -1.21742753	     -2.81077280	    -20.40004890	    -14.62944443	     16.06072554	      2.03721812	     -4.58227837	     -2.35372039	      3.84168429
      0.07000000	      0.61315697	     -0.20503449	    -13.44114677	     -1.18457468	      0.90625840	     -0.30050699	     -5.00228719	      0.67451175	     -4.99296010	     -2.43794333	     15.22560698	     -1.35114020	     -1.22244939	     -2.80714366	    -20.40104998	    -14.62516314	     16.06019752	      2.03843485	     -4.58271330	     -2.35947643	      3.85118352
      0.08000000	      0.61979441	     -0.18401973	    -13.41131064	     -1.18439875	      0.90625712	     -0.30068251	     -4.99502827	      0.63869955	     -5.05026462	     -2.48091450	     15.29769254	     -1.38360844	     -1.24808868	     -2.75983774	    -20.32718012	    -14.58403736	     16.05071023	      2.04298494	     -4.58013488	     -2.37620236	      3.84815273
      0.09000000	      0.61712128	     -0.18079820	    -13.35588654	     -1.18416860	      0.90620223	     -0.30085517	     -5.01939045	      0.63552358	     -5.08889594	     -2.46016918	     15.29556753	     -1.38858051	     -1.25171799	     -2.74962861	    -20.34758302	    -14.59084995	     16.05992185	      2.04698803	     -4.57041089	     -2.37482637	      3.86917277
      0.10000000	      0.61069246	     -0.16009517	    -13.29384168	     -1.18401989	      0.90618848	     -0.30110255	     -5.02767276	      0.60556175	     -5.14930828	     -2.44618092	     15.29472284	     -1.39248221	     -1.23171096	     -2.72713210	    -20.39344501	    -14.59781800	     16.06633728	      2.05388485	     -4.55833582	     -2.37375593	      3.84005829
